# xmcd
#
# Track frame offsets: 
#        150
#        21886
#        42851
#        64101
#        73326
#
# Disc length: 1148 seconds
#
# Revision: 0
# Processed by: cddbd v1.5.2PL0 Copyright (c) Steve Scherf et al.
# Submitted via: ExactAudioCopy v0.99pb4
#
DISCID=43047a05
DTITLE=Jammin' feat. Rhonda Dorsey - Live at Gaskessel Bern
DYEAR=2005
DGENRE=Live
TTITLE0=We've Been Waiting
TTITLE1=Stop And Think It Over
TTITLE2=Later Might Be Too Late
TTITLE3=Stay
TTITLE4=You Don't Know Me
EXTD=
EXTT0=
EXTT1=
EXTT2=
EXTT3=
EXTT4=
PLAYORDER=
